<svg width="36" height="36" viewBox="0 0 36 36" fill="none" xmlns="http://www.w3.org/2000/svg">
<path d="M9.75 9C9.55109 9 9.36032 9.07902 9.21967 9.21967C9.07902 9.36032 9 9.55109 9 9.75C9 9.94891 9.07902 10.1397 9.21967 10.2803C9.36032 10.421 9.55109 10.5 9.75 10.5H10.119C10.2819 10.5003 10.4402 10.5536 10.5701 10.6518C10.7 10.75 10.7944 10.8879 10.839 11.0445L13.218 19.3695C13.3526 19.8393 13.6364 20.2525 14.0267 20.5467C14.4169 20.8409 14.8923 21 15.381 21H22.2345C22.6843 21.0001 23.1237 20.8654 23.4962 20.6132C23.8686 20.3611 24.157 20.0031 24.324 19.5855L26.535 14.0565C26.6259 13.829 26.6597 13.5827 26.6334 13.3391C26.6071 13.0955 26.5216 12.8621 26.3842 12.6592C26.2469 12.4563 26.062 12.2901 25.8456 12.1752C25.6292 12.0603 25.388 12.0002 25.143 12H12.672L12.2805 10.632C12.1463 10.1622 11.8628 9.74878 11.4728 9.45434C11.0828 9.15991 10.6076 9.00043 10.119 9H9.75ZM14.661 18.9555L13.101 13.5H25.143L22.9305 19.029C22.8748 19.168 22.7787 19.2872 22.6547 19.3711C22.5306 19.4551 22.3843 19.5 22.2345 19.5H15.381C15.2181 19.4997 15.0598 19.4464 14.9299 19.3482C14.8 19.25 14.7056 19.1121 14.661 18.9555ZM15.75 27C16.0455 27 16.3381 26.9418 16.611 26.8287C16.884 26.7157 17.1321 26.5499 17.341 26.341C17.5499 26.1321 17.7157 25.884 17.8287 25.611C17.9418 25.3381 18 25.0455 18 24.75C18 24.4545 17.9418 24.1619 17.8287 23.889C17.7157 23.616 17.5499 23.3679 17.341 23.159C17.1321 22.9501 16.884 22.7843 16.611 22.6713C16.3381 22.5582 16.0455 22.5 15.75 22.5C15.1533 22.5 14.581 22.7371 14.159 23.159C13.7371 23.581 13.5 24.1533 13.5 24.75C13.5 25.3467 13.7371 25.919 14.159 26.341C14.581 26.7629 15.1533 27 15.75 27ZM15.75 25.5C15.5511 25.5 15.3603 25.421 15.2197 25.2803C15.079 25.1397 15 24.9489 15 24.75C15 24.5511 15.079 24.3603 15.2197 24.2197C15.3603 24.079 15.5511 24 15.75 24C15.9489 24 16.1397 24.079 16.2803 24.2197C16.421 24.3603 16.5 24.5511 16.5 24.75C16.5 24.9489 16.421 25.1397 16.2803 25.2803C16.1397 25.421 15.9489 25.5 15.75 25.5ZM21.75 27C22.0455 27 22.3381 26.9418 22.611 26.8287C22.884 26.7157 23.1321 26.5499 23.341 26.341C23.5499 26.1321 23.7157 25.884 23.8287 25.611C23.9418 25.3381 24 25.0455 24 24.75C24 24.4545 23.9418 24.1619 23.8287 23.889C23.7157 23.616 23.5499 23.3679 23.341 23.159C23.1321 22.9501 22.884 22.7843 22.611 22.6713C22.3381 22.5582 22.0455 22.5 21.75 22.5C21.1533 22.5 20.581 22.7371 20.159 23.159C19.7371 23.581 19.5 24.1533 19.5 24.75C19.5 25.3467 19.7371 25.919 20.159 26.341C20.581 26.7629 21.1533 27 21.75 27ZM21.75 25.5C21.5511 25.5 21.3603 25.421 21.2197 25.2803C21.079 25.1397 21 24.9489 21 24.75C21 24.5511 21.079 24.3603 21.2197 24.2197C21.3603 24.079 21.5511 24 21.75 24C21.9489 24 22.1397 24.079 22.2803 24.2197C22.421 24.3603 22.5 24.5511 22.5 24.75C22.5 24.9489 22.421 25.1397 22.2803 25.2803C22.1397 25.421 21.9489 25.5 21.75 25.5Z" fill="black"/>
</svg>
