<svg width="198" height="40" viewBox="0 0 198 40" fill="none" xmlns="http://www.w3.org/2000/svg">
<path d="M13.66 21.16C14.0867 21.5733 14.56 21.8867 15.08 22.1C15.6 22.3133 16.14 22.4667 16.7 22.56C17.26 22.64 17.8333 22.6867 18.42 22.7C19.0067 22.7 19.5733 22.7 20.12 22.7C20.32 22.7 20.5867 22.6933 20.92 22.68C21.2667 22.6667 21.6333 22.64 22.02 22.6C22.42 22.5467 22.82 22.48 23.22 22.4C23.62 22.3067 23.98 22.1867 24.3 22.04C24.6333 21.8933 24.9 21.72 25.1 21.52C25.3133 21.3067 25.42 21.0533 25.42 20.76C25.42 20.4667 25.3067 20.2133 25.08 20C24.8667 19.7733 24.5867 19.58 24.24 19.42C23.8933 19.26 23.5 19.1267 23.06 19.02C22.6333 18.9 22.2067 18.8133 21.78 18.76C21.3533 18.6933 20.9533 18.6467 20.58 18.62C20.22 18.5933 19.9267 18.58 19.7 18.58L19.72 18.58C19.4 18.5667 19.0067 18.5333 18.54 18.48C18.0733 18.4267 17.5867 18.3467 17.08 18.24C16.5733 18.1333 16.0667 18 15.56 17.84C15.0533 17.6667 14.6 17.46 14.2 17.22C13.8 16.98 13.4733 16.7 13.22 16.38C12.9667 16.0467 12.84 15.6667 12.84 15.24C12.84 14.7733 12.96 14.3733 13.2 14.04C13.4533 13.7067 13.7733 13.4267 14.16 13.2C14.56 12.96 15.0067 12.7733 15.5 12.64C15.9933 12.4933 16.4933 12.38 17 12.3C17.5067 12.22 17.9867 12.1667 18.44 12.14C18.9067 12.1133 19.3 12.1 19.62 12.1C20.14 12.1 20.6667 12.1267 21.2 12.18C21.7467 12.22 22.28 12.3 22.8 12.42C23.32 12.54 23.8267 12.7067 24.32 12.92C24.8133 13.12 25.2667 13.38 25.68 13.7L24.62 14.46C24.2333 14.1933 23.8267 13.9867 23.4 13.84C22.9733 13.68 22.5333 13.56 22.08 13.48C21.6267 13.4 21.1667 13.3533 20.7 13.34C20.2333 13.3133 19.78 13.3 19.34 13.3C19.0333 13.3 18.6133 13.32 18.08 13.36C17.56 13.4 17.04 13.4867 16.52 13.62C16.0133 13.74 15.5733 13.9333 15.2 14.2C14.8267 14.4533 14.64 14.8 14.64 15.24C14.64 15.6667 14.82 16.0133 15.18 16.28C15.54 16.5333 16.0133 16.74 16.6 16.9C17.1867 17.0467 17.8533 17.1667 18.6 17.26C19.36 17.34 20.1333 17.4267 20.92 17.52C21.7067 17.6133 22.4733 17.7267 23.22 17.86C23.98 17.98 24.6533 18.16 25.24 18.4C25.8267 18.6267 26.3 18.9333 26.66 19.32C27.02 19.6933 27.2 20.1733 27.2 20.76C27.2 21.1733 27.0733 21.54 26.82 21.86C26.58 22.18 26.26 22.46 25.86 22.7C25.46 22.9267 25.0067 23.12 24.5 23.28C24.0067 23.4267 23.5067 23.5467 23 23.64C22.5067 23.7333 22.0333 23.8 21.58 23.84C21.1267 23.88 20.7533 23.9 20.46 23.9L18.96 23.9C18.4133 23.9 17.84 23.88 17.24 23.84C16.64 23.8 16.0533 23.7133 15.48 23.58C14.9067 23.4333 14.36 23.2333 13.84 22.98C13.32 22.7267 12.86 22.38 12.46 21.94L13.66 21.16ZM10.8 21.52C11.3333 22.3867 11.9667 23.06 12.7 23.54C13.4333 24.0067 14.2267 24.3533 15.08 24.58C15.9333 24.7933 16.8133 24.92 17.72 24.96C18.64 25 19.5533 25.02 20.46 25.02C20.86 25.02 21.3333 24.9933 21.88 24.94C22.4267 24.8733 22.9933 24.7733 23.58 24.64C24.1667 24.5067 24.74 24.3333 25.3 24.12C25.8733 23.8933 26.38 23.6267 26.82 23.32C27.2733 23 27.6333 22.6333 27.9 22.22C28.18 21.7933 28.32 21.3067 28.32 20.76C28.32 20.1067 28.1733 19.5533 27.88 19.1C27.6 18.6333 27.2267 18.2467 26.76 17.94C26.3067 17.62 25.78 17.3667 25.18 17.18C24.5933 16.98 23.9867 16.8267 23.36 16.72C22.7333 16.6133 22.12 16.5333 21.52 16.48C20.92 16.4267 20.3867 16.38 19.92 16.34C19.76 16.3267 19.4533 16.3 19 16.26C18.5467 16.2067 18.08 16.14 17.6 16.06C17.12 15.9667 16.6933 15.8533 16.32 15.72C15.9467 15.5867 15.76 15.4267 15.76 15.24C15.76 15.0267 15.9333 14.8667 16.28 14.76C16.6267 14.6533 17.02 14.5733 17.46 14.52C17.9133 14.4667 18.3467 14.44 18.76 14.44C19.1867 14.4267 19.4733 14.42 19.62 14.42C20.0467 14.42 20.48 14.44 20.92 14.48C21.36 14.5067 21.7867 14.5733 22.2 14.68C22.6267 14.7867 23.0267 14.94 23.4 15.14C23.7867 15.34 24.14 15.6 24.46 15.92L27.38 13.96C26.8733 13.2667 26.3 12.7267 25.66 12.34C25.02 11.94 24.34 11.64 23.62 11.44C22.9 11.24 22.1467 11.1133 21.36 11.06C20.5867 11.0067 19.8067 10.98 19.02 10.98C18.6067 10.98 18.1333 11.0133 17.6 11.08C17.08 11.1333 16.5467 11.2267 16 11.36C15.4667 11.4933 14.94 11.6667 14.42 11.88C13.9133 12.0933 13.46 12.36 13.06 12.68C12.66 13 12.34 13.3733 12.1 13.8C11.86 14.2133 11.74 14.6933 11.74 15.24C11.74 15.8667 11.8933 16.4067 12.2 16.86C12.5067 17.3133 12.9133 17.7 13.42 18.02C13.9267 18.34 14.5 18.6 15.14 18.8C15.78 19 16.4267 19.1667 17.08 19.3C17.7467 19.42 18.3867 19.52 19 19.6C19.6267 19.6667 20.1733 19.7267 20.64 19.78C20.7733 19.7933 21.0333 19.82 21.42 19.86C21.82 19.9 22.2333 19.96 22.66 20.04C23.0867 20.1067 23.4667 20.2 23.8 20.32C24.1333 20.44 24.3 20.5867 24.3 20.76C24.3 20.9067 24.1933 21.0333 23.98 21.14C23.7667 21.2333 23.4933 21.3133 23.16 21.38C22.8267 21.4333 22.46 21.4733 22.06 21.5C21.66 21.5267 21.2667 21.5467 20.88 21.56C20.5067 21.5733 20.1667 21.58 19.86 21.58C19.5667 21.58 19.36 21.58 19.24 21.58C18.7333 21.58 18.2333 21.56 17.74 21.52C17.2467 21.4667 16.7667 21.3733 16.3 21.24C15.8333 21.0933 15.3933 20.8933 14.98 20.64C14.5667 20.3867 14.1933 20.0467 13.86 19.62L10.8 21.52ZM13.7 19.12L12.74 18.14C12.2733 17.7933 11.9067 17.3867 11.64 16.92C11.3733 16.44 11.24 15.88 11.24 15.24C11.24 14.6267 11.3667 14.0867 11.62 13.62C11.8867 13.14 12.2333 12.7267 12.66 12.38C13.0867 12.0333 13.5733 11.74 14.12 11.5C14.6667 11.2467 15.2267 11.0467 15.8 10.9C16.3733 10.7533 16.94 10.6467 17.5 10.58C18.06 10.5133 18.5667 10.48 19.02 10.48C19.8067 10.48 20.6 10.5067 21.4 10.56C22.2 10.6 22.98 10.72 23.74 10.92C24.5133 11.12 25.2533 11.4267 25.96 11.84C26.6667 12.2533 27.3267 12.8333 27.94 13.58C28.3533 13.9933 28.68 14.34 28.92 14.62C29.16 14.8867 29.3467 15.1133 29.48 15.3C29.6267 15.4867 29.7333 15.64 29.8 15.76C29.8667 15.8667 29.9333 15.9667 30 16.06L27.44 17.78C27.5067 17.8467 27.58 17.9067 27.66 17.96C27.7533 18 27.88 18.0867 28.04 18.22C28.2 18.3533 28.4067 18.5467 28.66 18.8C28.9267 19.04 29.28 19.3867 29.72 19.84C30.04 20.1733 30.2933 20.6 30.48 21.12C30.6667 21.64 30.76 22.1867 30.76 22.76C30.76 23.36 30.6133 23.8933 30.32 24.36C30.0267 24.8267 29.6467 25.2333 29.18 25.58C28.7133 25.9267 28.18 26.22 27.58 26.46C26.98 26.7 26.3733 26.8933 25.76 27.04C25.1467 27.1867 24.5467 27.2933 23.96 27.36C23.3867 27.4267 22.8867 27.46 22.46 27.46C21.6733 27.46 20.8733 27.46 20.06 27.46C19.2467 27.46 18.4467 27.3933 17.66 27.26C16.8867 27.1267 16.1333 26.9067 15.4 26.6C14.6667 26.2933 13.9933 25.8267 13.38 25.2C12.86 24.72 12.42 24.3 12.06 23.94C11.7133 23.5667 11.4133 23.2333 11.16 22.94C10.92 22.6333 10.7133 22.3533 10.54 22.1C10.38 21.8467 10.2267 21.6 10.08 21.36L13.7 19.12ZM46.4311 23.9L35.6511 14L35.6511 23.9L34.4711 23.9L34.4711 12.1L35.4911 12.1L46.2311 22L46.2311 12.1L47.4311 12.1L47.4311 23.9L46.4311 23.9ZM48.5511 25.02L48.5511 10.98L45.1311 10.98L45.1311 19.48L35.8711 10.98L33.3511 10.98L33.3511 25.02L36.7711 25.02L36.7711 16.5L46.0511 25.02L48.5511 25.02ZM32.8511 25.52L32.8511 10.48L36.0511 10.48L44.6311 18.34L44.6311 10.48L49.0511 10.48L50.9911 12.54L50.9911 27.46L47.8711 27.46L39.2111 19.52L39.2111 27.46L34.9111 27.46L32.8511 25.52ZM56.0245 17.4L66.2045 17.4L66.2045 18.6L56.0245 18.6L56.0245 22.68L68.2845 22.68L68.2845 23.9L54.7845 23.9L54.7845 12.1L68.2645 12.1L68.2645 13.32L56.0245 13.32L56.0245 17.4ZM57.1245 14.44L69.3845 14.44L69.3845 10.98L53.6645 10.98L53.6645 25.02L69.4045 25.02L69.4045 21.56L57.1245 21.56L57.1245 19.7L67.3045 19.7L67.3045 16.3L57.1245 16.3L57.1245 14.44ZM53.1645 25.52L53.1645 10.48L69.8845 10.48L71.8245 12.54L71.8245 16.88L68.7645 16.88L69.7445 17.86L69.7445 21.06L71.8445 23.12L71.8445 27.46L55.2245 27.46L53.1645 25.52ZM88.5664 19.56L84.3464 13.58L80.0264 19.56L88.5664 19.56ZM86.4064 18.48L82.1664 18.48L84.3064 15.48L86.4064 18.48ZM91.5464 23.9L89.3864 20.8L79.1664 20.8C78.7931 21.3067 78.4264 21.8267 78.0664 22.36C77.7197 22.88 77.3597 23.3933 76.9864 23.9L75.3864 23.9C76.7997 21.9133 78.2064 19.9467 79.6064 18C81.0197 16.0533 82.4264 14.0867 83.8264 12.1L84.7864 12.1L93.0464 23.9L91.5464 23.9ZM83.2864 10.98L73.2864 25.02L77.5264 25.02L79.7264 21.92L88.7664 21.92L90.9464 25.02L95.1864 25.02L85.3864 10.98L83.2864 10.98ZM87.6264 12.54L98.0264 27.46L92.7064 27.46L90.6864 25.52L89.8664 24.36L81.9664 24.36C81.8064 24.6 81.6264 24.8533 81.4264 25.12C81.2397 25.3867 81.0464 25.6533 80.8464 25.92C80.6597 26.2 80.4731 26.4667 80.2864 26.72C80.0997 26.9867 79.9264 27.2333 79.7664 27.46L74.4264 27.46L72.3064 25.52L83.0264 10.48L85.6464 10.48L87.6264 12.54ZM100.039 12.1L101.259 12.1L101.259 17.18L111.199 12.1L113.239 12.1L101.559 18C103.493 19 105.413 19.9867 107.319 20.96C109.239 21.92 111.166 22.9 113.099 23.9L111.199 23.9L101.259 18.84L101.259 23.9L100.039 23.9L100.039 12.1ZM102.379 20.66L110.879 25.02L117.099 25C114.859 23.84 112.639 22.68 110.439 21.52C108.239 20.3467 106.019 19.1733 103.779 18L117.279 10.98L110.879 10.98C109.466 11.7267 108.053 12.46 106.639 13.18C105.226 13.8867 103.806 14.6067 102.379 15.34L102.379 10.98L98.9394 10.98L98.9394 25.02L102.379 25.02L102.379 20.66ZM107.699 19.52L109.459 20.44C110.099 20.7734 110.759 21.12 111.439 21.48C112.133 21.84 112.826 22.2 113.519 22.56C114.213 22.92 114.899 23.28 115.579 23.64C116.273 24 116.933 24.34 117.559 24.66L122.239 27.44L112.759 27.46L104.819 23.38L104.819 27.46L100.499 27.46L98.4394 25.52L98.4394 10.48L102.879 10.48L104.819 12.54L104.819 13.52C105.273 13.2933 105.713 13.0733 106.139 12.86C106.579 12.6333 107.033 12.4 107.499 12.16C107.966 11.92 108.459 11.6667 108.979 11.4C109.513 11.12 110.099 10.8134 110.739 10.48L117.519 10.48L120.039 13.1L107.699 19.52ZM125.321 17.4L135.501 17.4L135.501 18.6L125.321 18.6L125.321 22.68L137.581 22.68L137.581 23.9L124.081 23.9L124.081 12.1L137.561 12.1L137.561 13.32L125.321 13.32L125.321 17.4ZM126.421 14.44L138.681 14.44L138.681 10.98L122.961 10.98L122.961 25.02L138.701 25.02L138.701 21.56L126.421 21.56L126.421 19.7L136.601 19.7L136.601 16.3L126.421 16.3L126.421 14.44ZM122.461 25.52L122.461 10.48L139.181 10.48L141.121 12.54L141.121 16.88L138.061 16.88L139.041 17.86L139.041 21.06L141.141 23.12L141.141 27.46L124.521 27.46L122.461 25.52ZM155.408 14.44C155.568 14.44 155.735 14.4534 155.908 14.48C156.081 14.5067 156.241 14.5534 156.388 14.62C156.535 14.6867 156.655 14.78 156.748 14.9C156.855 15.02 156.908 15.18 156.908 15.38C156.908 15.5667 156.855 15.72 156.748 15.84C156.641 15.96 156.508 16.0534 156.348 16.12C156.201 16.1867 156.035 16.2334 155.848 16.26C155.675 16.2867 155.521 16.3 155.388 16.3L147.988 16.3L147.988 14.44L155.408 14.44ZM155.388 17.4C155.708 17.4 156.021 17.3667 156.328 17.3C156.648 17.22 156.935 17.1 157.188 16.94C157.441 16.78 157.641 16.5734 157.788 16.32C157.948 16.0534 158.028 15.74 158.028 15.38C158.028 15.0067 157.955 14.6867 157.808 14.42C157.661 14.1534 157.461 13.94 157.208 13.78C156.968 13.62 156.688 13.5067 156.368 13.44C156.061 13.36 155.741 13.32 155.408 13.32L146.888 13.32L146.888 17.4L155.388 17.4ZM157.208 18.3C157.021 18.4067 156.815 18.4867 156.588 18.54C156.361 18.5934 156.148 18.6467 155.948 18.7C156.695 19.58 157.441 20.4467 158.188 21.3C158.948 22.1534 159.708 23.02 160.468 23.9L158.848 23.9L154.228 18.6L146.888 18.6L146.888 23.9L145.648 23.9L145.648 12.1L155.408 12.1C155.955 12.1 156.461 12.16 156.928 12.28C157.408 12.4 157.815 12.5934 158.148 12.86C158.495 13.1267 158.761 13.4667 158.948 13.88C159.148 14.2934 159.248 14.7934 159.248 15.38C159.248 16.1134 159.081 16.72 158.748 17.2C158.415 17.6667 157.908 18.0334 157.228 18.3L157.208 18.3ZM160.368 15.38C160.368 14.62 160.248 13.9667 160.008 13.42C159.768 12.86 159.428 12.4 158.988 12.04C158.548 11.68 158.021 11.4134 157.408 11.24C156.808 11.0667 156.141 10.98 155.408 10.98L144.568 10.98L144.568 25.02L147.988 25.02L147.988 19.7L153.708 19.7L158.308 25.02L162.908 25.02L157.868 19.24C159.535 18.5067 160.368 17.22 160.368 15.38ZM144.068 25.52L144.068 10.48L155.408 10.48C155.928 10.48 156.428 10.52 156.908 10.6C157.388 10.6667 157.868 10.8134 158.348 11.04C158.841 11.2667 159.348 11.5934 159.868 12.02C160.401 12.4467 160.968 13.0134 161.568 13.72C161.955 14.1067 162.255 14.6267 162.468 15.28C162.695 15.92 162.808 16.62 162.808 17.38C162.808 18.26 162.615 19.04 162.228 19.72C161.855 20.4 161.308 20.9534 160.588 21.38C161.001 21.86 161.435 22.36 161.888 22.88C162.341 23.4 162.795 23.9267 163.248 24.46C163.701 24.98 164.148 25.4934 164.588 26C165.041 26.52 165.468 27.0067 165.868 27.46L160.108 27.46L158.088 25.52L155.168 22.14L150.428 22.14L150.428 27.46L146.128 27.46L144.068 25.52ZM169.174 12.1L180.974 12.1L180.974 13.1L170.674 22.68L181.614 22.68L181.614 23.9L168.554 23.9L168.554 22.9L178.894 13.32L169.174 13.32L169.174 12.1ZM168.054 14.44L176.114 14.44L167.454 22.42L167.454 25.02L182.714 25.02L182.714 21.56L173.474 21.56L182.094 13.6L182.094 10.98L168.054 10.98L168.054 14.44ZM167.554 10.48L182.594 10.48L184.534 12.54L184.534 15.8L178.814 21.06L183.214 21.06L185.154 23.12L185.154 27.46L169.014 27.46L166.954 25.52L166.954 22.2L172.714 16.88L169.614 16.88L167.554 14.94L167.554 10.48Z" fill="white"/>
</svg>
